{"asset":{"version":"2.0","generator":"gltfpack 1.3"},"buffers":[{"uri":"potted_plant_02.bin","byteLength":425816}],"bufferViews":[{"buffer":0,"byteOffset":0,"byteLength":129564,"byteStride":12,"target":34962},{"buffer":0,"byteOffset":129564,"byteLength":129564,"byteStride":12,"target":34962},{"buffer":0,"byteOffset":259128,"byteLength":86376,"byteStride":8,"target":34962},{"buffer":0,"byteOffset":345504,"byteLength":80310,"target":34963}],"accessors":[{"bufferView":0,"byteOffset":0,"componentType":5126,"count":9489,"type":"VEC3","min":[-0.235019222,7.91212879e-05,-0.235803947],"max":[0.235019267,0.339300513,0.235019237]},{"bufferView":1,"byteOffset":0,"componentType":5126,"count":9489,"type":"VEC3"},{"bufferView":2,"byteOffset":0,"componentType":5126,"count":9489,"type":"VEC2"},{"bufferView":3,"byteOffset":0,"componentType":5123,"count":34899,"type":"SCALAR"},{"bufferView":0,"byteOffset":113868,"componentType":5126,"count":1308,"type":"VEC3","min":[-0.394375682,0.209187776,-0.420312613],"max":[0.304497004,0.837845266,0.222881615]},{"bufferView":1,"byteOffset":113868,"componentType":5126,"count":1308,"type":"VEC3"},{"bufferView":2,"byteOffset":75912,"componentType":5126,"count":1308,"type":"VEC2"},{"bufferView":3,"byteOffset":69798,"componentType":5123,"count":5256,"type":"SCALAR"}],"samplers":[{"magFilter":9729,"minFilter":9987}],"images":[{"name":"potted_plant_02_pot_nor_gl","uri":"potted_plant_02_pot_nor_gl_1k.jpg"},{"name":"potted_plant_02_pot_diff","uri":"potted_plant_02_pot_diff_1k.jpg"},{"name":"potted_plant_02_pot_rough","uri":"potted_plant_02_pot_rough_1k.jpg"},{"name":"potted_plant_02_leaves_nor_gl","uri":"potted_plant_02_leaves_nor_gl_1k.jpg"},{"name":"potted_plant_02_leaves_diff","uri":"potted_plant_02_leaves_diff_1k.jpg"},{"name":"potted_plant_02_leaves_rough","uri":"potted_plant_02_leaves_rough_1k.jpg"}],"textures":[{"sampler":0,"source":0},{"sampler":0,"source":1},{"sampler":0,"source":2},{"sampler":0,"source":3},{"sampler":0,"source":4},{"sampler":0,"source":5}],"materials":[{"name":"potted_plant_02_pot","pbrMetallicRoughness":{"baseColorTexture":{"index":1},"metallicFactor":0,"metallicRoughnessTexture":{"index":2}},"normalTexture":{"index":0},"doubleSided":true},{"name":"potted_plant_02_leaves","pbrMetallicRoughness":{"baseColorTexture":{"index":4},"metallicFactor":0,"metallicRoughnessTexture":{"index":5}},"normalTexture":{"index":3},"doubleSided":true}],"meshes":[{"primitives":[{"attributes":{"POSITION":0,"NORMAL":1,"TEXCOORD_0":2},"indices":3,"material":0},{"attributes":{"POSITION":4,"NORMAL":5,"TEXCOORD_0":6},"indices":7,"material":1}]}],"nodes":[{"mesh":0}],"scenes":[{"name":"Scene","nodes":[0]}],"scene":0}